<svg xmlns="http://www.w3.org/2000/svg" version="1.0" width="1200.000000" height="500.000000" preserveAspectRatio="xMidYMid meet"><rect id="backgroundrect" width="100%" height="100%" x="0" y="0" fill="none" stroke="none"/>


<g class="currentLayer" style=""><title>Layer 1</title>





<path d="M1073.000015988946,255.99999636411667 c-14.800000220537186,2.8000000417232513 -24.00000035762787,12.90000019222498 -24.00000035762787,26.400000393390656 c0,12.000000178813934 5.500000081956387,17.900000266730785 20.40000030398369,21.800000324845314 c7.700000114738941,2.0000000298023224 10.100000150501728,4.000000059604645 8.600000128149986,6.800000101327896 c-2.2000000327825546,4.100000061094761 -10.30000015348196,3.200000047683716 -19.60000029206276,-2.1000000312924385 l-5.200000077486038,-2.9000000432133675 l-4.100000061094761,9.700000144541264 c-2.3000000342726707,5.4000000804662704 -4.100000061094761,10.100000150501728 -4.100000061094761,10.500000156462193 c0,0.4000000059604645 2.2000000327825546,1.9000000283122063 4.800000071525574,3.200000047683716 c11.60000017285347,5.900000087916851 28.400000423192978,7.400000110268593 38.800000578165054,3.500000052154064 c11.60000017285347,-4.400000065565109 18.400000274181366,-13.90000020712614 18.400000274181366,-25.900000385940075 c0,-11.800000175833702 -6.000000089406967,-18.500000275671482 -19.400000289082527,-21.40000031888485 c-8.900000132620335,-2.0000000298023224 -12.700000189244747,-4.500000067055225 -11.000000163912773,-7.300000108778477 c2.2000000327825546,-3.500000052154064 12.500000186264515,-2.500000037252903 18.700000278651714,1.9000000283122063 l2.7000000402331352,2.0000000298023224 l1.4000000208616257,-3.400000050663948 c6.800000101327896,-16.300000242888927 6.800000101327896,-16.20000024139881 4.90000007301569,-17.600000262260437 c-5.4000000804662704,-3.9000000581145287 -22.800000339746475,-6.800000101327896 -31.300000466406345,-5.200000077486038 z" id="svg_7" class=""/>
<path d="M1073.000015988946,255.99999636411667 c-14.800000220537186,2.8000000417232513 -24.00000035762787,12.90000019222498 -24.00000035762787,26.400000393390656 c0,12.000000178813934 5.500000081956387,17.900000266730785 20.40000030398369,21.800000324845314 c7.700000114738941,2.0000000298023224 10.100000150501728,4.000000059604645 8.600000128149986,6.800000101327896 c-2.2000000327825546,4.100000061094761 -10.30000015348196,3.200000047683716 -19.60000029206276,-2.1000000312924385 l-5.200000077486038,-2.9000000432133675 l-4.100000061094761,9.700000144541264 c-2.3000000342726707,5.4000000804662704 -4.100000061094761,10.100000150501728 -4.100000061094761,10.500000156462193 c0,0.4000000059604645 2.2000000327825546,1.9000000283122063 4.800000071525574,3.200000047683716 c11.60000017285347,5.900000087916851 28.400000423192978,7.400000110268593 38.800000578165054,3.500000052154064 c11.60000017285347,-4.400000065565109 18.400000274181366,-13.90000020712614 18.400000274181366,-25.900000385940075 c0,-11.800000175833702 -6.000000089406967,-18.500000275671482 -19.400000289082527,-21.40000031888485 c-8.900000132620335,-2.0000000298023224 -12.700000189244747,-4.500000067055225 -11.000000163912773,-7.300000108778477 c2.2000000327825546,-3.500000052154064 12.500000186264515,-2.500000037252903 18.700000278651714,1.9000000283122063 l2.7000000402331352,2.0000000298023224 l1.4000000208616257,-3.400000050663948 c6.800000101327896,-16.300000242888927 6.800000101327896,-16.20000024139881 4.90000007301569,-17.600000262260437 c-5.4000000804662704,-3.9000000581145287 -22.800000339746475,-6.800000101327896 -31.300000466406345,-5.200000077486038 z" id="svg_8" class=""/>
<path d="M619.6000092327595,258.6999964043498 c-0.4000000059604645,1.5000000223517418 -12.600000187754631,72.90000108629465 -12.600000187754631,74.00000110268593 c0,0.10000000149011612 5.800000086426735,0.30000000447034836 13.000000193715096,0.30000000447034836 c12.600000187754631,0 13.000000193715096,-0.10000000149011612 13.40000019967556,-2.3000000342726707 c0.9000000134110451,-4.300000064074993 3.6000000536441803,-29.40000043809414 3.6000000536441803,-33.80000050365925 c0,-2.400000035762787 0.5000000074505806,-5.100000075995922 1.0000000149011612,-5.900000087916851 c0.800000011920929,-1.2000000178813934 1.0000000149011612,-1.0000000149011612 1.0000000149011612,1.0000000149011612 c0,2.3000000342726707 1.5000000223517418,7.600000113248825 9.00000013411045,33.20000049471855 l2.3000000342726707,7.800000116229057 l8.100000120699406,0 l8.200000122189522,0 l5.200000077486038,-17.80000026524067 c2.9000000432133675,-9.700000144541264 5.500000081956387,-19.200000286102295 5.800000086426735,-21.000000312924385 c0.9000000134110451,-4.6000000685453415 2.400000035762787,-4.000000059604645 2.400000035762787,1.0000000149011612 c0,2.400000035762787 0.7000000104308128,11.800000175833702 1.700000025331974,21.000000312924385 l1.700000025331974,16.800000250339508 l27.60000041127205,0 l27.700000412762165,0 l0.9000000134110451,-4.300000064074993 l0.9000000134110451,-4.200000062584877 l10.700000159442425,-0.30000000447034836 l10.800000160932541,-0.30000000447034836 l1.1000000163912773,4.6000000685453415 l1.1000000163912773,4.500000067055225 l28.400000423192978,0 l28.300000421702862,0 l0.30000000447034836,-12.000000178813934 l0.30000000447034836,-11.900000177323818 l6.400000095367432,11.900000177323818 l6.400000095367432,12.000000178813934 l14.800000220537186,0 c8.200000122189522,0 14.900000222027302,-0.30000000447034836 14.900000222027302,-0.6000000089406967 c0,-0.30000000447034836 -4.300000064074993,-7.1000001057982445 -9.600000143051147,-15.100000225007534 c-9.400000140070915,-14.300000213086605 -10.000000149011612,-16.20000024139881 -5.800000086426735,-16.300000242888927 c0.6000000089406967,0 2.3000000342726707,-0.9000000134110451 3.8000000566244125,-2.1000000312924385 c9.900000147521496,-7.800000116229057 8.600000128149986,-28.800000429153442 -2.2000000327825546,-36.200000539422035 c-6.600000098347664,-4.6000000685453415 -13.600000202655792,-5.700000084936619 -35.90000053495169,-5.700000084936619 l-20.300000302493572,0 l0,37.70000056177378 c0,20.700000308454037 -0.4000000059604645,37.30000055581331 -0.800000011920929,36.80000054836273 c-0.5000000074505806,-0.6000000089406967 -4.800000071525574,-12.500000186264515 -9.700000144541264,-26.50000039488077 c-4.800000071525574,-14.000000208616257 -10.600000157952309,-30.600000455975533 -12.700000189244747,-36.80000054836273 l-4.000000059604645,-11.200000166893005 l-15.20000022649765,0 l-15.100000225007534,0 l-13.000000193715096,36.0000005364418 c-7.1000001057982445,19.80000029504299 -13.200000196695328,36.0000005364418 -13.500000201165676,36.0000005364418 c-0.30000000447034836,0 -1.2000000178813934,-4.200000062584877 -1.9000000283122063,-9.300000138580799 c-1.4000000208616257,-10.200000151991844 -8.800000131130219,-55.60000082850456 -9.700000144541264,-60.00000089406967 l-0.6000000089406967,-2.7000000402331352 l-13.800000205636024,0 l-13.90000020712614,0 l-3.0000000447034836,9.700000144541264 c-4.800000071525574,15.800000235438347 -7.1000001057982445,24.600000366568565 -7.1000001057982445,27.500000409781933 c0,4.6000000685453415 -1.700000025331974,4.000000059604645 -2.500000037252903,-0.9000000134110451 c-0.5000000074505806,-3.6000000536441803 -5.700000084936619,-23.400000348687172 -9.100000135600567,-34.60000051558018 c-0.5000000074505806,-1.5000000223517418 -2.1000000312924385,-1.700000025331974 -14.400000214576721,-1.700000025331974 c-12.300000183284283,0 -13.90000020712614,0.20000000298023224 -14.400000214576721,1.700000025331974 zm209.80000312626362,18.400000274181366 c1.3000000193715096,0.7000000104308128 3.0000000447034836,2.500000037252903 3.7000000551342964,4.000000059604645 c2.3000000342726707,5.700000084936619 -2.1000000312924385,10.900000162422657 -9.100000135600567,10.900000162422657 l-3.0000000447034836,0 l0,-8.00000011920929 l0,-8.00000011920929 l3.0000000447034836,0 c1.600000023841858,0 4.000000059604645,0.5000000074505806 5.4000000804662704,1.1000000163912773 zm-74.00000110268593,21.90000032633543 c0.9000000134110451,2.9000000432133675 1.600000023841858,5.700000084936619 1.600000023841858,6.200000092387199 c0,0.9000000134110451 -10.30000015348196,1.1000000163912773 -11.200000166893005,0.20000000298023224 c-0.30000000447034836,-0.30000000447034836 0.20000000298023224,-3.1000000461935997 1.2000000178813934,-6.3000000938773155 c0.9000000134110451,-3.1000000461935997 2.3000000342726707,-8.800000131130219 3.0000000447034836,-12.700000189244747 l1.4000000208616257,-6.900000102818012 l1.2000000178813934,7.000000104308128 c0.7000000104308128,3.9000000581145287 1.9000000283122063,9.500000141561031 2.8000000417232513,12.500000186264515 z" id="svg_9" class=""/>
<path d="M863.0000128597021,269.49999656528234 l0,12.500000186264515 l8.00000011920929,0 l8.00000011920929,0 l0,25.50000037997961 l0,25.50000037997961 l13.500000201165676,0 l13.500000201165676,0 l0,-25.50000037997961 l0,-25.50000037997961 l7.500000111758709,0 l7.500000111758709,0 l0,-12.500000186264515 l0,-12.500000186264515 l-29.000000432133675,0 l-29.000000432133675,0 l0,12.500000186264515 z" id="svg_10" class=""/>
<path d="M924.0000137686729,294.99999694526196 l0,38.000000566244125 l14.000000208616257,0 l14.000000208616257,0 l0,-38.000000566244125 l0,-38.000000566244125 l-14.000000208616257,0 l-14.000000208616257,0 l0,38.000000566244125 z" id="svg_11" class=""/>
<path d="M963.0000143498182,294.99999694526196 l0,38.000000566244125 l13.100000195205212,0 l13.100000195205212,0 l-0.4000000059604645,-19.400000289082527 c-0.20000000298023224,-10.700000159442425 -0.10000000149011612,-19.200000286102295 0.20000000298023224,-19.000000283122063 c0.30000000447034836,0.30000000447034836 5.500000081956387,8.900000132620335 11.500000171363354,19.200000286102295 l11.10000016540289,18.700000278651714 l13.700000204145908,0.30000000447034836 l13.700000204145908,0.30000000447034836 l0,-38.10000056773424 l0,-38.000000566244125 l-13.000000193715096,0 l-13.100000195205212,0 l0.30000000447034836,19.400000289082527 c0.20000000298023224,10.700000159442425 0,19.200000286102295 -0.4000000059604645,19.000000283122063 c-0.30000000447034836,-0.20000000298023224 -5.700000084936619,-9.00000013411045 -11.900000177323818,-19.400000289082527 l-11.300000168383121,-19.000000283122063 l-13.300000198185444,0 l-13.300000198185444,0 l0,38.000000566244125 z" id="svg_12" class=""/>
<path d="M710.2000105828047,350.69999777525663 c-2.0000000298023224,1.700000025331974 -2.7000000402331352,4.300000064074993 -2.400000035762787,9.100000135600567 c0.10000000149011612,1.4000000208616257 2.0000000298023224,3.500000052154064 5.200000077486038,5.800000086426735 c5.100000075995922,3.6000000536441803 6.70000009983778,7.500000111758709 3.6000000536441803,8.700000129640102 c-1.700000025331974,0.7000000104308128 -3.6000000536441803,-1.1000000163912773 -3.6000000536441803,-3.500000052154064 c0,-1.3000000193715096 -0.800000011920929,-1.8000000268220901 -3.0000000447034836,-1.8000000268220901 c-2.400000035762787,0 -3.0000000447034836,0.4000000059604645 -3.0000000447034836,2.1000000312924385 c0,2.3000000342726707 1.8000000268220901,6.000000089406967 3.400000050663948,7.1000001057982445 c0.6000000089406967,0.4000000059604645 3.0000000447034836,0.800000011920929 5.4000000804662704,0.800000011920929 c5.700000084936619,0 8.200000122189522,-2.500000037252903 8.200000122189522,-8.50000012665987 c0,-3.9000000581145287 -0.4000000059604645,-4.700000070035458 -3.6000000536441803,-7.200000107288361 c-6.000000089406967,-4.6000000685453415 -7.400000110268593,-6.200000092387199 -6.800000101327896,-7.800000116229057 c0.9000000134110451,-2.2000000327825546 3.500000052154064,-1.9000000283122063 4.100000061094761,0.5000000074505806 c0.4000000059604645,1.4000000208616257 1.4000000208616257,2.0000000298023224 3.400000050663948,2.0000000298023224 c2.400000035762787,0 2.9000000432133675,-0.4000000059604645 2.9000000432133675,-2.400000035762787 c0,-5.4000000804662704 -9.400000140070915,-8.600000128149986 -13.800000205636024,-4.90000007301569 z" id="svg_13" class=""/>
<path d="M742.0000110566616,350.999997779727 c-2.3000000342726707,2.3000000342726707 -2.7000000402331352,8.700000129640102 -0.7000000104308128,11.200000166893005 c0.6000000089406967,0.800000011920929 2.9000000432133675,2.7000000402331352 5.000000074505806,4.300000064074993 c4.400000065565109,3.300000049173832 5.300000078976154,7.900000117719173 1.5000000223517418,7.300000108778477 c-1.5000000223517418,-0.20000000298023224 -2.400000035762787,-1.1000000163912773 -2.600000038743019,-2.600000038743019 c-0.30000000447034836,-1.700000025331974 -1.0000000149011612,-2.2000000327825546 -3.300000049173832,-2.2000000327825546 c-2.400000035762787,0 -2.9000000432133675,0.4000000059604645 -2.9000000432133675,2.400000035762787 c0,1.3000000193715096 0.9000000134110451,3.500000052154064 2.1000000312924385,5.000000074505806 c3.9000000581145287,4.90000007301569 14.000000208616257,2.9000000432133675 15.20000022649765,-3.0000000447034836 c0.9000000134110451,-4.6000000685453415 -1.1000000163912773,-8.700000129640102 -5.800000086426735,-12.200000181794167 c-2.7000000402331352,-1.9000000283122063 -4.500000067055225,-4.100000061094761 -4.500000067055225,-5.200000077486038 c0,-2.7000000402331352 3.6000000536441803,-2.600000038743019 4.300000064074993,0 c0.30000000447034836,1.4000000208616257 1.4000000208616257,2.0000000298023224 3.1000000461935997,2.0000000298023224 c2.1000000312924385,0 2.600000038743019,-0.5000000074505806 2.600000038743019,-2.500000037252903 c0,-3.8000000566244125 -3.300000049173832,-6.500000096857548 -8.00000011920929,-6.500000096857548 c-2.7000000402331352,0 -4.700000070035458,0.7000000104308128 -6.000000089406967,2.0000000298023224 z" id="svg_14" class=""/>
<path d="M992.5000147894025,351.49999778717756 c-4.500000067055225,4.400000065565109 -2.2000000327825546,11.700000174343586 4.90000007301569,15.400000229477882 c3.1000000461935997,1.700000025331974 4.200000062584877,4.6000000685453415 2.500000037252903,6.70000009983778 c-1.5000000223517418,1.8000000268220901 -3.9000000581145287,0.10000000149011612 -3.9000000581145287,-2.7000000402331352 c0,-1.4000000208616257 -0.7000000104308128,-1.9000000283122063 -3.0000000447034836,-1.9000000283122063 c-2.7000000402331352,0 -3.0000000447034836,0.30000000447034836 -3.0000000447034836,3.0000000447034836 c0,4.400000065565109 3.1000000461935997,7.000000104308128 8.300000123679638,7.000000104308128 c4.800000071525574,0 5.900000087916851,-0.6000000089406967 7.600000113248825,-3.7000000551342964 c2.9000000432133675,-5.600000083446503 0.800000011920929,-10.100000150501728 -7.400000110268593,-15.900000236928463 c-2.0000000298023224,-1.4000000208616257 -2.7000000402331352,-2.500000037252903 -2.2000000327825546,-3.7000000551342964 c0.9000000134110451,-2.3000000342726707 3.8000000566244125,-2.1000000312924385 4.400000065565109,0.30000000447034836 c0.800000011920929,2.9000000432133675 6.3000000938773155,2.8000000417232513 6.3000000938773155,0 c0,-3.400000050663948 -4.400000065565109,-7.000000104308128 -8.50000012665987,-7.000000104308128 c-2.500000037252903,0 -4.400000065565109,0.800000011920929 -6.000000089406967,2.500000037252903 z" id="svg_15" class=""/>
<path d="M729.0000108629465,364.49999798089266 l0,14.500000216066837 l3.0000000447034836,0 l3.0000000447034836,0 l0,-14.500000216066837 l0,-14.500000216066837 l-3.0000000447034836,0 l-3.0000000447034836,0 l0,14.500000216066837 z" id="svg_16" class=""/>
<path d="M759.0000113099813,352.4999978020787 c0,2.0000000298023224 0.5000000074505806,2.500000037252903 2.500000037252903,2.500000037252903 l2.400000035762787,0 l0.30000000447034836,11.700000174343586 l0.30000000447034836,11.800000175833702 l3.300000049173832,0.30000000447034836 l3.200000047683716,0.30000000447034836 l0,-12.000000178813934 l0,-12.10000018030405 l3.0000000447034836,0 c2.500000037252903,0 3.0000000447034836,-0.4000000059604645 3.0000000447034836,-2.500000037252903 c0,-2.500000037252903 -0.10000000149011612,-2.500000037252903 -9.00000013411045,-2.500000037252903 c-8.900000132620335,0 -9.00000013411045,0 -9.00000013411045,2.500000037252903 z" id="svg_17" class=""/>
<path d="M780.0000116229057,364.49999798089266 l0,14.500000216066837 l7.500000111758709,0 l7.500000111758709,0 l0,-3.0000000447034836 c0,-2.9000000432133675 -0.20000000298023224,-3.0000000447034836 -4.6000000685453415,-3.0000000447034836 c-4.500000067055225,0 -4.500000067055225,0 -4.200000062584877,-3.300000049173832 c0.30000000447034836,-3.0000000447034836 0.6000000089406967,-3.200000047683716 4.6000000685453415,-3.500000052154064 c3.7000000551342964,-0.30000000447034836 4.200000062584877,-0.6000000089406967 4.200000062584877,-2.8000000417232513 c0,-2.2000000327825546 -0.4000000059604645,-2.400000035762787 -4.500000067055225,-2.400000035762787 c-4.300000064074993,0 -4.500000067055225,-0.10000000149011612 -4.500000067055225,-3.0000000447034836 c0,-2.9000000432133675 0.20000000298023224,-3.0000000447034836 4.500000067055225,-3.0000000447034836 c4.100000061094761,0 4.500000067055225,-0.20000000298023224 4.500000067055225,-2.500000037252903 c0,-2.400000035762787 -0.20000000298023224,-2.500000037252903 -7.500000111758709,-2.500000037252903 l-7.500000111758709,0 l0,14.500000216066837 z" id="svg_18" class=""/>
<path d="M800.000011920929,364.49999798089266 l0,14.500000216066837 l3.0000000447034836,0 l2.9000000432133675,0 l0.30000000447034836,-10.30000015348196 l0.30000000447034836,-10.200000151991844 l2.0000000298023224,10.000000149011612 c1.9000000283122063,9.300000138580799 2.2000000327825546,10.000000149011612 4.6000000685453415,10.30000015348196 c2.400000035762787,0.30000000447034836 2.500000037252903,-0.10000000149011612 4.300000064074993,-9.00000013411045 c2.7000000402331352,-13.300000198185444 3.500000052154064,-13.700000204145908 2.9000000432133675,-1.5000000223517418 l-0.6000000089406967,10.700000159442425 l3.200000047683716,0 l3.1000000461935997,0 l0,-14.500000216066837 l0,-14.500000216066837 l-4.400000065565109,0 c-5.000000074505806,0 -4.90000007301569,-0.20000000298023224 -6.600000098347664,9.700000144541264 c-1.2000000178813934,6.900000102818012 -3.0000000447034836,9.900000147521496 -3.0000000447034836,5.200000077486038 c0,-1.2000000178813934 -0.5000000074505806,-5.000000074505806 -1.2000000178813934,-8.50000012665987 l-1.1000000163912773,-6.400000095367432 l-4.90000007301569,0 l-4.800000071525574,0 l0,14.500000216066837 z" id="svg_19" class=""/>
<path d="M834.2000124305487,356.199997857213 c-0.7000000104308128,3.500000052154064 -2.1000000312924385,10.000000149011612 -3.1000000461935997,14.500000216066837 l-1.9000000283122063,8.300000123679638 l3.300000049173832,0 c2.9000000432133675,0 3.400000050663948,-0.4000000059604645 3.7000000551342964,-2.8000000417232513 c0.30000000447034836,-2.3000000342726707 0.800000011920929,-2.7000000402331352 3.300000049173832,-2.7000000402331352 c2.500000037252903,0 3.0000000447034836,0.4000000059604645 3.300000049173832,2.7000000402331352 c0.30000000447034836,2.500000037252903 0.800000011920929,2.8000000417232513 3.9000000581145287,2.8000000417232513 c2.400000035762787,0 3.400000050663948,-0.4000000059604645 3.0000000447034836,-1.3000000193715096 c-0.20000000298023224,-0.6000000089406967 -1.700000025331974,-7.200000107288361 -3.200000047683716,-14.500000216066837 l-2.8000000417232513,-13.200000196695328 l-4.200000062584877,0 l-4.200000062584877,0 l-1.1000000163912773,6.200000092387199 zm7.1000001057982445,7.500000111758709 c0.5000000074505806,3.9000000581145287 0.30000000447034836,4.300000064074993 -1.700000025331974,4.300000064074993 c-2.2000000327825546,0 -2.2000000327825546,-0.20000000298023224 -1.3000000193715096,-6.200000092387199 c1.1000000163912773,-6.500000096857548 1.9000000283122063,-6.000000089406967 3.0000000447034836,1.9000000283122063 z" id="svg_20" class=""/>
<path d="M861.0000128298998,364.49999798089266 l0,14.500000216066837 l3.0000000447034836,0 l3.0000000447034836,0 l0.10000000149011612,-10.30000015348196 l0.10000000149011612,-10.200000151991844 l2.2000000327825546,10.000000149011612 c2.0000000298023224,9.400000140070915 2.3000000342726707,10.000000149011612 4.6000000685453415,10.000000149011612 c2.400000035762787,0 2.600000038743019,-0.6000000089406967 4.400000065565109,-9.80000014603138 c1.0000000149011612,-5.300000078976154 2.2000000327825546,-9.700000144541264 2.500000037252903,-9.700000144541264 c0.4000000059604645,0 0.5000000074505806,4.500000067055225 0.30000000447034836,10.000000149011612 l-0.4000000059604645,10.000000149011612 l3.1000000461935997,0 l3.1000000461935997,0 l0,-14.600000217556953 l0,-14.500000216066837 l-4.700000070035458,0.30000000447034836 l-4.700000070035458,0.30000000447034836 l-1.3000000193715096,6.500000096857548 c-2.400000035762787,12.10000018030405 -2.500000037252903,12.10000018030405 -3.9000000581145287,3.500000052154064 c-1.9000000283122063,-10.800000160932541 -1.700000025331974,-10.500000156462193 -6.900000102818012,-10.500000156462193 l-4.500000067055225,0 l0,14.500000216066837 z" id="svg_21" class=""/>
<path d="M896.0000133514404,350.79999777674675 c0,0.5000000074505806 -1.3000000193715096,7.000000104308128 -2.9000000432133675,14.500000216066837 l-2.9000000432133675,13.700000204145908 l3.300000049173832,0 c2.9000000432133675,0 3.400000050663948,-0.4000000059604645 3.7000000551342964,-2.8000000417232513 c0.30000000447034836,-2.3000000342726707 0.800000011920929,-2.7000000402331352 3.300000049173832,-2.7000000402331352 c2.500000037252903,0 3.0000000447034836,0.4000000059604645 3.300000049173832,2.7000000402331352 c0.30000000447034836,2.400000035762787 0.800000011920929,2.8000000417232513 3.300000049173832,2.8000000417232513 c1.600000023841858,0 2.9000000432133675,-0.5000000074505806 2.9000000432133675,-1.3000000193715096 c0,-0.6000000089406967 -1.2000000178813934,-7.200000107288361 -2.7000000402331352,-14.500000216066837 l-2.7000000402331352,-13.200000196695328 l-4.300000064074993,0 c-2.400000035762787,0 -4.300000064074993,0.4000000059604645 -4.300000064074993,0.800000011920929 zm5.900000087916851,13.40000019967556 c0.10000000149011612,3.1000000461935997 -0.20000000298023224,3.8000000566244125 -1.9000000283122063,3.8000000566244125 c-2.0000000298023224,0 -2.1000000312924385,-1.1000000163912773 -0.30000000447034836,-9.00000013411045 c0.5000000074505806,-2.3000000342726707 0.6000000089406967,-2.400000035762787 1.3000000193715096,-0.5000000074505806 c0.5000000074505806,1.1000000163912773 0.9000000134110451,3.7000000551342964 0.9000000134110451,5.700000084936619 z" id="svg_22" class=""/>
<path d="M914.0000136196613,364.49999798089266 l0,14.500000216066837 l3.0000000447034836,0 l3.0000000447034836,0 l0,-6.100000090897083 c0,-5.700000084936619 0.10000000149011612,-6.000000089406967 2.3000000342726707,-5.700000084936619 c1.9000000283122063,0.30000000447034836 2.3000000342726707,1.0000000149011612 2.7000000402331352,5.800000086426735 c0.5000000074505806,5.500000081956387 0.5000000074505806,5.500000081956387 4.100000061094761,5.800000086426735 l3.6000000536441803,0.30000000447034836 l-0.9000000134110451,-6.200000092387199 c-0.4000000059604645,-3.400000050663948 -1.3000000193715096,-6.800000101327896 -1.9000000283122063,-7.500000111758709 c-0.800000011920929,-1.0000000149011612 -0.6000000089406967,-1.9000000283122063 0.5000000074505806,-3.6000000536441803 c2.2000000327825546,-3.1000000461935997 2.0000000298023224,-7.400000110268593 -0.4000000059604645,-9.80000014603138 c-1.600000023841858,-1.600000023841858 -3.300000049173832,-2.0000000298023224 -9.00000013411045,-2.0000000298023224 l-7.000000104308128,0 l0,14.500000216066837 zm9.80000014603138,-9.600000143051147 c0.800000011920929,0.5000000074505806 1.2000000178813934,2.1000000312924385 1.0000000149011612,3.7000000551342964 c-0.20000000298023224,2.1000000312924385 -0.9000000134110451,3.0000000447034836 -2.500000037252903,3.200000047683716 c-2.0000000298023224,0.30000000447034836 -2.3000000342726707,-0.10000000149011612 -2.3000000342726707,-3.1000000461935997 c0,-4.500000067055225 1.1000000163912773,-5.600000083446503 3.8000000566244125,-3.8000000566244125 z" id="svg_23" class=""/>
<path d="M935.0000139325857,352.4999978020787 c0,2.0000000298023224 0.5000000074505806,2.500000037252903 2.500000037252903,2.500000037252903 l2.400000035762787,0 l0.30000000447034836,11.700000174343586 l0.30000000447034836,11.800000175833702 l3.300000049173832,0.30000000447034836 l3.200000047683716,0.30000000447034836 l0,-12.000000178813934 l0,-12.10000018030405 l3.0000000447034836,0 c2.500000037252903,0 3.0000000447034836,-0.4000000059604645 3.0000000447034836,-2.500000037252903 c0,-2.500000037252903 -0.10000000149011612,-2.500000037252903 -9.00000013411045,-2.500000037252903 c-8.900000132620335,0 -9.00000013411045,0 -9.00000013411045,2.500000037252903 z" id="svg_24" class=""/>
<path d="M956.0000142455101,364.49999798089266 l0,14.500000216066837 l3.0000000447034836,0 l3.0000000447034836,0 l0,-14.500000216066837 l0,-14.500000216066837 l-3.0000000447034836,0 l-3.0000000447034836,0 l0,14.500000216066837 z" id="svg_25" class=""/>
<path d="M968.000014424324,364.49999798089266 l0,14.500000216066837 l2.500000037252903,0 c2.500000037252903,0 2.500000037252903,-0.10000000149011612 2.600000038743019,-8.800000131130219 l0.10000000149011612,-8.700000129640102 l2.7000000402331352,8.50000012665987 c2.600000038743019,8.200000122189522 2.8000000417232513,8.50000012665987 5.900000087916851,8.800000131130219 l3.200000047683716,0.30000000447034836 l0,-14.500000216066837 l0,-14.600000217556953 l-2.500000037252903,0 c-2.500000037252903,0 -2.500000037252903,0.10000000149011612 -2.600000038743019,8.200000122189522 l-0.10000000149011612,8.300000123679638 l-2.600000038743019,-8.300000123679638 c-2.600000038743019,-8.100000120699406 -2.7000000402331352,-8.200000122189522 -5.900000087916851,-8.200000122189522 l-3.300000049173832,0 l0,14.500000216066837 z" id="svg_26" class=""/>
<g class="selected" fill-opacity="1" fill="#ee4036" stroke-opacity="1" stroke="#ee4036"><path d="M214.90000320225954,177.19999518990517 l-40.600000604987144,70.30000104755163 l-40.600000604987144,0.30000000447034836 l-40.70000060647726,0.20000000298023224 l0,20.500000305473804 l0,20.60000030696392 l46.30000068992376,-0.30000000447034836 l46.20000068843365,-0.30000000447034836 l6.70000009983778,-3.300000049173832 c11.300000168383121,-5.500000081956387 13.600000202655792,-8.800000131130219 50.50000075250864,-72.70000108331442 c18.400000274181366,-31.900000475347042 34.20000050961971,-59.400000885128975 35.00000052154064,-61.200000911951065 l1.600000023841858,-3.200000047683716 l-11.800000175833702,-20.60000030696392 c-6.400000095367432,-11.300000168383121 -11.800000175833702,-20.500000305473804 -11.900000177323818,-20.500000305473804 c-0.10000000149011612,0 -18.400000274181366,31.600000470876694 -40.70000060647726,70.20000104606152 z" fill="#ee4036" id="svg_2" class="" stroke="#ee4036"/><path d="M406.60000605881214,127.09999444335699 c-6.70000009983778,11.700000174343586 -11.500000171363354,21.1000003144145 -11.300000168383121,22.100000329315662 c0.30000000447034836,0.9000000134110451 15.900000236928463,28.60000042617321 34.80000051856041,61.4000009149313 c37.90000056475401,65.8000009804964 40.100000597536564,68.90000102669 51.700000770390034,74.60000111162663 l6.70000009983778,3.300000049173832 l46.20000068843365,0.30000000447034836 l46.30000068992376,0.30000000447034836 l0,-20.60000030696392 l0,-20.500000305473804 l-40.70000060647726,-0.20000000298023224 l-40.80000060796738,-0.30000000447034836 l-39.20000058412552,-68.00000101327896 c-21.500000320374966,-37.40000055730343 -39.800000593066216,-69.10000102967024 -40.600000604987144,-70.30000104755163 c-1.3000000193715096,-2.3000000342726707 -1.8000000268220901,-1.700000025331974 -13.100000195205212,17.900000266730785 z" fill="#ee4036" id="svg_3" class="" stroke="#ee4036"/><path d="M282.2000042051077,159.3999949246645 c-2.3000000342726707,5.200000077486038 -65.70000097900629,114.40000170469284 -68.80000102519989,118.70000176876783 c-3.400000050663948,4.700000070035458 -11.400000169873238,11.400000169873238 -16.900000251829624,14.200000211596489 c-1.700000025331974,0.800000011920929 -5.700000084936619,2.3000000342726707 -9.00000013411045,3.400000050663948 c-5.4000000804662704,1.600000023841858 -10.000000149011612,1.8000000268220901 -50.00000074505806,1.8000000268220901 l-44.00000065565109,0 l-0.30000000447034836,20.700000308454037 l-0.20000000298023224,20.800000309944153 l44.700000666081905,0 c48.10000071674585,-0.10000000149011612 53.30000079423189,-0.5000000074505806 67.10000099986792,-5.300000078976154 c4.000000059604645,-1.4000000208616257 10.700000159442425,-4.500000067055225 14.900000222027302,-6.900000102818012 c8.200000122189522,-4.6000000685453415 22.100000329315662,-17.100000254809856 27.700000412762165,-24.600000366568565 c2.9000000432133675,-4.100000061094761 19.400000289082527,-32.20000047981739 52.00000077486038,-88.90000132471323 l8.800000131130219,-15.300000227987766 l-11.800000175833702,-20.500000305473804 c-6.500000096857548,-11.300000168383121 -12.10000018030405,-20.500000305473804 -12.500000186264515,-20.500000305473804 c-0.30000000447034836,0 -1.1000000163912773,1.1000000163912773 -1.700000025331974,2.400000035762787 z" fill="#ee4036" id="svg_4" class="" stroke="#ee4036"/><path d="M388.400005787611,158.7999949157238 c-0.6000000089406967,0.9000000134110451 -5.900000087916851,10.100000150501728 -11.800000175833702,20.40000030398369 c-9.700000144541264,16.900000251829624 -10.600000157952309,18.900000281631947 -9.500000141561031,21.000000312924385 c5.200000077486038,10.000000149011612 55.10000082105398,95.60000142455101 58.50000087171793,100.40000149607658 c12.000000178813934,17.100000254809856 29.90000044554472,29.500000439584255 51.00000075995922,35.60000053048134 c7.600000113248825,2.1000000312924385 9.700000144541264,2.2000000327825546 56.20000083744526,2.600000038743019 l48.20000071823597,0.30000000447034836 l-0.20000000298023224,-20.800000309944153 l-0.30000000447034836,-20.800000309944153 l-44.00000065565109,0 c-46.20000068843365,0 -49.100000731647015,-0.20000000298023224 -57.80000086128712,-4.6000000685453415 c-6.800000101327896,-3.400000050663948 -14.200000211596489,-9.400000140070915 -18.0000002682209,-14.600000217556953 c-1.9000000283122063,-2.600000038743019 -18.400000274181366,-30.70000045746565 -36.6000005453825,-62.30000092834234 c-18.30000027269125,-31.600000470876694 -33.5000004991889,-57.80000086128712 -33.900000505149364,-58.20000086724758 c-0.4000000059604645,-0.4000000059604645 -1.2000000178813934,0 -1.8000000268220901,1.0000000149011612 z" fill="#ee4036" id="svg_5" class="" stroke="#ee4036"/><path d="M285.10000424832106,254.19999633729458 c-15.000000223517418,26.00000038743019 -29.800000444054604,50.600000753998756 -32.80000048875809,54.6000008136034 c-12.700000189244747,16.700000248849392 -31.800000473856926,29.200000435113907 -54.000000804662704,35.400000527501106 c-7.400000110268593,2.1000000312924385 -10.200000151991844,2.2000000327825546 -56.50000084191561,2.600000038743019 l-48.800000727176666,0.30000000447034836 l0,21.000000312924385 l0,20.90000031143427 l43.30000064522028,0 c23.70000035315752,0 47.300000704824924,-0.5000000074505806 52.200000777840614,-1.0000000149011612 c39.50000058859587,-4.500000067055225 75.30000112205744,-24.800000369548798 98.10000146180391,-55.500000827014446 c3.200000047683716,-4.400000065565109 15.70000023394823,-25.00000037252903 27.700000412762165,-45.80000068247318 c12.000000178813934,-20.700000308454037 22.20000033080578,-37.70000056177378 22.70000033825636,-37.70000056177378 c0.4000000059604645,0 9.700000144541264,15.400000229477882 20.500000305473804,34.20000050961971 c10.900000162422657,18.900000281631947 22.100000329315662,37.90000056475401 25.00000037252903,42.30000063031912 c22.600000336766243,34.80000051856041 60.400000900030136,57.700000859797 102.80000153183937,62.40000092983246 c5.4000000804662704,0.6000000089406967 28.60000042617321,1.1000000163912773 52.700000785291195,1.1000000163912773 l43.00000064074993,0 l0,-20.90000031143427 l0,-21.000000312924385 l-48.70000072568655,-0.30000000447034836 c-54.10000080615282,-0.4000000059604645 -53.90000080317259,-0.4000000059604645 -71.60000106692314,-7.800000116229057 c-14.900000222027302,-6.200000092387199 -32.9000004902482,-20.60000030696392 -41.600000619888306,-33.30000049620867 c-1.8000000268220901,-2.600000038743019 -13.800000205636024,-23.100000344216824 -26.80000039935112,-45.500000678002834 c-12.90000019222498,-22.40000033378601 -25.100000374019146,-43.50000064820051 -27.10000040382147,-47.000000700354576 c-2.0000000298023224,-3.400000050663948 -3.9000000581145287,-6.200000092387199 -4.200000062584877,-6.200000092387199 c-0.30000000447034836,0 -5.700000084936619,9.00000013411045 -12.000000178813934,20.000000298023224 c-6.3000000938773155,11.000000163912773 -11.700000174343586,20.000000298023224 -12.000000178813934,20.000000298023224 c-0.30000000447034836,0 -5.700000084936619,-9.00000013411045 -12.000000178813934,-20.000000298023224 c-6.3000000938773155,-11.000000163912773 -11.800000175833702,-20.000000298023224 -12.10000018030405,-20.000000298023224 c-0.30000000447034836,0 -12.800000190734863,21.300000317394733 -27.80000041425228,47.20000070333481 z" fill="#ee4036" id="svg_6" class="" stroke="#ee4036"/></g></g></svg>